# xmcd
#
# Track frame offsets:
#	150
#	13175
#	31745
#	46195
#	60795
#	78500
#	96605
#	112405
#	129630
#	142975
#	161315
#
# Disc length: 2324 seconds
#
# Revision: 4
# Processed by: cddbd v1.5.2PL0 Copyright (c) Steve Scherf et al.
# Submitted via: audiograbber 1.83.01
#
DISCID=8b09120b
DTITLE=Various Artist - Hot Country For The 90's II
DYEAR=1900
DGENRE=Oldies
TTITLE0=Alan Jackson - Don't Rock The Jukebox
TTITLE1=John Michael Montgomery - Rope The Moon
TTITLE2=Terri Clark - Better Things To Do
TTITLE3=Randy Travis - Look Heart, No Hands
TTITLE4=Kathy Mattea - A Few Good Things Remain
TTITLE5=Kim Richey - Those Words We Said
TTITLE6=Toby Keith - Wish I Didn't Know
TTITLE7=Kentucky Headhunters - Walk Softly On This Heart Of Mine
TTITLE8=Sammy Kershaw - She Don't Know She's Beautiful
TTITLE9=Billy Ray Cyrus - In The Heart Of A Woman
TTITLE10=John and Audrey Wiggins - Falling Out Of Love
EXTD=
EXTT0=
EXTT1=
EXTT2=
EXTT3=
EXTT4=
EXTT5=
EXTT6=
EXTT7=
EXTT8=
EXTT9=
EXTT10=
PLAYORDER=
